<svg xmlns="http://www.w3.org/2000/svg" viewBox="0 0 100 125" x="0px" y="0px"><path d="M86.2 46.9c-.5-.4-1.1-.5-1.7-.4l-8.4 2c-.9.2-1.5 1-1.5 1.9v1.4h-2.5V41.5c0-1.1-.9-2-2-2H19.9c-1.1 0-2 .9-2 2v5h-2.5c-1.1 0-2 .9-2 2v6c0 1.1.9 2 2 2h2.5v20.3c0 1.1.9 2 2 2h12.5L29 92.5c-.3 1.1.4 2.2 1.5 2.4.2 0 .3.1.5.1.9 0 1.7-.6 1.9-1.5l3.7-14.7H42V93c0 1.1.9 2 2 2s2-.9 2-2V78.8h5.5l3.7 14.7c.2.9 1 1.5 1.9 1.5.2 0 .3 0 .5-.1 1.1-.3 1.7-1.4 1.5-2.4l-3.4-13.7h14.4c1.1 0 2-.9 2-2V66.4h2.5v1.4c0 .9.6 1.7 1.5 1.9l8.4 2c.6.1 1.2 0 1.7-.4s.8-1 .8-1.6V48.5c0-.7-.3-1.2-.8-1.6zM83 67.3l-4.4-1.1v-1.8c0-1.1-.9-2-2-2h-6.5c-1.1 0-2 .9-2 2v10.4H21.9V54.5c0-1.1-.9-2-2-2h-2.5v-2h2.5c1.1 0 2-.9 2-2v-5h46.2v10.4c0 1.1.9 2 2 2h6.5c1.1 0 2-.9 2-2V52l4.4-1v16.3zM29.1 37.9c7.7 0 14-6.3 14-14s-6.3-14-14-14-14 6.3-14 14 6.3 14 14 14zm0-24c5.5 0 10 4.5 10 10s-4.5 10-10 10-10-4.5-10-10 4.5-10 10-10zM60.6 37.9c9 0 16.3-7.3 16.3-16.3S69.6 5.3 60.6 5.3s-16.3 7.3-16.3 16.3c0 8.9 7.3 16.3 16.3 16.3zm0-28.7c6.8 0 12.3 5.5 12.3 12.3 0 6.8-5.5 12.3-12.3 12.3s-12.3-5.5-12.3-12.3c0-6.8 5.6-12.3 12.3-12.3z"/>
</svg>